HIERARCHY
ROOT Root
{
	OFFSET 0.00000 0.00000 0.00000
	CHANNELS 6 Xposition Yposition Zposition Zrotation Xrotation Yrotation
	JOINT Hip
	{
		OFFSET 0 0 0	
		CHANNELS 3 Zrotation Xrotation Yrotation
		JOINT Tummy
		{
			OFFSET 0 0.04 0	
			CHANNELS 3 Zrotation Xrotation Yrotation
			JOINT ChestBottom
			{
				OFFSET 0 0.194 0	
				CHANNELS 3 Zrotation Xrotation Yrotation
				JOINT ChestTop
				{
					OFFSET 0 0.166 0	
					CHANNELS 3 Zrotation Xrotation Yrotation
					JOINT LeftCollar
					{
						OFFSET 0 0.1 0	
						CHANNELS 3 Zrotation Xrotation Yrotation
						JOINT LeftUpperArm
						{
							OFFSET 0.156 -0.02 0.03	
							CHANNELS 3 Zrotation Xrotation Yrotation
							JOINT LeftForeArm
							{
								OFFSET 0.035 -0.27 -0.01	
								CHANNELS 3 Zrotation Xrotation Yrotation
								JOINT LeftHand
								{
									OFFSET 0.01 -0.27 0.01	
									CHANNELS 3 Zrotation Xrotation Yrotation
									End Site
									{
										OFFSET 0 -0.15 0
									}
								}
							}
						}
					}
					JOINT RightCollar
					{
						OFFSET 0 0.1 0	
						CHANNELS 3 Zrotation Xrotation Yrotation
						JOINT RightUpperArm
						{
							OFFSET -0.156 -0.02 0.03	
							CHANNELS 3 Zrotation Xrotation Yrotation
							JOINT RightForeArm
							{
								OFFSET -0.035 -0.27 -0.01	
								CHANNELS 3 Zrotation Xrotation Yrotation
								JOINT RightHand
								{
									OFFSET -0.01 -0.27 0.01	
									CHANNELS 3 Zrotation Xrotation Yrotation
									End Site
									{
										OFFSET 0 -0.15 0
									}
								}
							}
						}
					}
					JOINT Neck
					{
						OFFSET 0 0.1 0	
						CHANNELS 3 Zrotation Xrotation Yrotation
						JOINT Head
						{
							OFFSET 0 0.127 0.03	
							CHANNELS 3 Zrotation Xrotation Yrotation
							End Site
							{
								OFFSET 0 0.127 0.03
							}
						}
					}
				}
			}
		}
	}
	JOINT LeftHip
	{
		OFFSET 0 0 0	
		CHANNELS 3 Zrotation Xrotation Yrotation
		JOINT LeftThigh
		{
			OFFSET 0.088 -0.06 0	
			CHANNELS 3 Zrotation Xrotation Yrotation
			JOINT LeftLowerLeg
			{
				OFFSET 0 -0.39 0.02	
				CHANNELS 3 Zrotation Xrotation Yrotation
				JOINT LeftFootTop
				{
					OFFSET 0 -0.43 -0.02	
					CHANNELS 3 Zrotation Xrotation Yrotation
					JOINT LeftFootFront
					{
						OFFSET 0 -0.07 0.085	
						CHANNELS 3 Zrotation Xrotation Yrotation
						End Site
						{
							OFFSET 0 -0.005 0.09
						}
					}
				}
				JOINT LeftHeel
				{
					OFFSET 0 -0.43 -0.02	
					CHANNELS 3 Zrotation Xrotation Yrotation
					End Site
					{
						OFFSET 0 -0.075 -0.05
					}
				}
			}
		}
	}
	JOINT RightHip
	{
		OFFSET 0 0 0	
		CHANNELS 3 Zrotation Xrotation Yrotation
		JOINT RightThigh
		{
			OFFSET -0.088 -0.06 0	
			CHANNELS 3 Zrotation Xrotation Yrotation
			JOINT RightLowerLeg
			{
				OFFSET 0 -0.39 0.02	
				CHANNELS 3 Zrotation Xrotation Yrotation
				JOINT RightFootTop
				{
					OFFSET 0 -0.43 -0.02	
					CHANNELS 3 Zrotation Xrotation Yrotation
					JOINT RightFootFront
					{
						OFFSET 0 -0.07 0.085	
						CHANNELS 3 Zrotation Xrotation Yrotation
						End Site
						{
							OFFSET 0 -0.005 0.09
						}
					}
				}
				JOINT RightHeel
				{
					OFFSET 0 -0.43 -0.02	
					CHANNELS 3 Zrotation Xrotation Yrotation
					End Site
					{
						OFFSET 0 -0.075 -0.05
					}
				}
			}
		}
	}
}
MOTION
Frames: 14
Frame Time: 0.05
-0.95713 0.90098 -0.94532 -0 0 -0 8.8432 -0.7633 -84.471 5.9643 -3.9416 -7.062 5.9643 -3.9416 -7.062 5.042 -3.2624 -5.9586 -0 0 -0 5.1744 11.093 6.8595 -2.6257 -32.221 -0.15478 -82.653 52.318 -100.21 -0 0 -0 -14.018 10.556 -11.991 0.53198 3.1147 -16.66 -9.4758 55.059 -11.728 -5.8398 0.90214 -35.606 -5.8398 0.90214 -35.606 8.8432 -0.7633 -84.471 27.81 -35.321 8.7409 -47.613 50.367 24.146 -14.364 15.504 -10.161 -1.0792 1.3439 0.93072 -0 0 -0 8.8432 -0.7633 -84.471 2.0876 -7.835 -15.403 4.8904 23.31 -17.307 -6.2473 -23.212 -56.327 -0.11702 -0.33826 0.56619 -0 0 -0 
-0.9595 0.90744 -0.95398 -0 0 -0 10.291 -2.0865 -86.614 4.5003 -2.864 -5.0657 4.5003 -2.864 -5.0657 3.797 -2.3793 -4.2699 -0 0 -0 0.76277 6.9763 14.038 -6.3124 -20.442 -7.5447 -53.756 49.493 -128.06 -0 0 -0 -8.5735 13.155 -8.2232 1.5882 -0.68938 -15.454 0.71359 54.779 -17.171 -4.2242 -1.1958 -36.555 -4.2242 -1.1958 -36.555 10.291 -2.0865 -86.614 26.057 -33.827 6.5121 -35.97 42.706 18.152 -12.028 12.938 -11.339 2.4726 -7.9216 2.4589 -0 0 -0 10.291 -2.0865 -86.614 0.62231 -8.3052 -20.338 4.6138 19.783 -16.074 -7.3338 -21.523 -51.746 0.042227 -0.31405 -0.0072021 -0 0 -0 
-0.96113 0.91466 -0.95657 -0 0 -0 11.355 -3.5858 -88.639 3.3085 -2.5094 -3.2538 3.3085 -2.5094 -3.2538 2.7885 -2.0954 -2.7427 -0 0 -0 -4.0714 10.355 13.325 -2.0285 -10.948 -7.0418 -38.252 31.671 -150.78 -0 0 -0 -5.2842 15.897 -6.0524 2.2588 -5.0957 -14.05 8.0414 54.125 -21.473 -4.1279 -2.5899 -34.334 -4.1279 -2.5899 -34.334 11.355 -3.5858 -88.639 21.074 -30.136 4.6199 -20.844 28.737 4.4495 -14.375 11.598 -5.0003 3.3811 -13.834 0.13515 -0 0 -0 11.355 -3.5858 -88.639 -0.32148 -7.2391 -23.012 3.6103 15.911 -13.303 -7.4238 -20.033 -51.1 0.0099782 -0.016389 -0.15666 -0 0 -0 
-0.96282 0.92187 -0.95193 -0 0 -0 12.559 -4.7151 -89.289 1.7683 -3.406 -1.5699 1.7683 -3.406 -1.5699 1.4913 -2.8578 -1.3255 -0 0 -0 -6.8853 15.533 12.958 3.0277 0.94473 0.99286 -32.278 12.176 -174.17 -0 0 -0 -1.1177 19.553 -7.2093 1.662 -7.9613 -12.903 14.848 56.327 -27.056 -3.887 -2.1462 -26.503 -3.887 -2.1462 -26.503 12.559 -4.7151 -89.289 14.006 -26.444 0.89877 -9.758 11.389 -1.9167 -17.364 12.708 0.21819 1.2433 -8.2544 -1.6099 -0 0 -0 12.559 -4.7151 -89.289 -1.3413 -6.5903 -21.017 4.0859 11.242 -16.242 -6.4908 -18.142 -50.057 -0.94661 -0.056839 -0.57654 -0 0 -0 
-0.96423 0.92851 -0.94158 -0 0 -0 14.469 -3.6554 -89.308 0.79842 -4.4589 0.33458 0.79842 -4.4589 0.33459 0.66868 -3.7458 0.27677 -0 0 -0 -5.4694 16.754 14.558 5.7146 11.65 11.705 -39.35 -1.3904 164.62 -0 0 -0 3.4262 20.887 -10.093 0.45258 -8.6993 -15.712 18.568 59.495 -29.89 -3.1689 -1.438 -12.469 -3.1689 -1.438 -12.469 14.469 -3.6554 -89.308 10.365 -22.588 -3.1213 -3.5449 -2.478 1.7024 -17.784 14.63 -0.2449 -0.66358 -4.1484 -1.1976 -0 0 -0 14.469 -3.6554 -89.308 -1.9586 -5.2246 -18.502 6.8252 5.3418 -21.873 -5.4822 -15.859 -46.931 0.12862 -0.32373 -0.43145 -0 0 -0 
-0.9651 0.93404 -0.92798 -0 0 -0 16.289 -2.0386 -88.82 0.52712 -6.6153 2.1291 0.52712 -6.6153 2.1291 0.42584 -5.5582 1.7829 -0 0 -0 -1.6305 20.139 17.173 6.6402 15.095 17.84 -54.454 -2.2469 150.88 -0 0 -0 5.7098 23.991 -13.878 -0.91335 -7.0278 -18.845 17.821 64.538 -27.355 -3.2203 0.94834 5.1972 -3.2203 0.94834 5.1972 16.289 -2.0386 -88.82 7.4029 -18.264 -4.8239 -0.1261 -10.79 1.1176 -17.046 13.586 1.0852 0.41335 -0.9634 0.60043 -0 0 -0 16.289 -2.0386 -88.82 -1.4559 -3.0453 -16.895 7.7451 -0.70415 -22.747 -5.3702 -13.043 -47.439 1.8534 0.31399 -0.3169 -0 0 -0 
-0.96585 0.93823 -0.91311 -0 0 -0 17.288 -2.458 -87.046 -0.65002 -7.9775 3.3285 -0.65002 -7.9775 3.3285 -0.57678 -6.6988 2.7989 -0 0 -0 5.3544 21.553 20.283 4.631 12.126 19.347 -63.693 3.0819 150.95 -0 0 -0 7.809 26.269 -17.636 -2.758 -4.1105 -18.812 18.28 68.045 -22.943 -1.3556 2.5081 18.797 -1.3556 2.5081 18.797 17.288 -2.458 -87.046 5.7437 -19.027 -4.1875 -2.3881 -10.973 -3.6722 -15.151 12.759 3.722 0.4926 0.7475 0.49629 -0 0 -0 17.288 -2.458 -87.046 -2.2044 -3.7847 -14.655 6.3546 -4.155 -26.73 -4.6238 -9.4635 -47.101 -0.38707 -0.39928 0.46391 -0 0 -0 
-0.96686 0.94119 -0.89846 -0 0 -0 17.509 -4.23 -84.668 -2.3163 -7.4211 4.808 -2.3163 -7.4211 4.808 -1.986 -6.2212 4.0551 -0 0 -0 12 14.814 21.365 1.3571 8.1787 19.757 -65.043 7.1068 162.45 -0 0 -0 9.7906 26.057 -21.156 -3.8818 -3.3293 -19.063 16.805 68.001 -18.553 -0.39075 2.1869 23.471 -0.39075 2.1869 23.471 17.509 -4.23 -84.668 4.6273 -21.793 -3.1377 -6.537 -7.8876 -6.4721 -13.165 13.459 3.6854 -0.37163 -0.21924 -0.067464 -0 0 -0 17.509 -4.23 -84.668 -6.0779 -3.1697 -15.277 6.7941 -6.5903 -26.845 -5.5858 -5.1952 -49.407 0.010129 0.090099 0.83357 -0 0 -0 
-0.96739 0.94337 -0.88533 -0 0 -0 16.588 -3.7492 -83.432 -3.5881 -7.4082 7.0404 -3.5881 -7.4082 7.0404 -3.073 -6.1944 5.9397 -0 0 -0 20.975 3.9852 20.302 -4.1315 5.7405 21.324 -54.42 15.403 177.1 -0 0 -0 14.158 27.176 -26.722 -3.645 -4.7974 -23.481 6.0959 68.548 -6.9448 0.54678 2.5897 21.899 0.54678 2.5897 21.899 16.588 -3.7492 -83.432 4.4288 -19.199 -3.1514 -8.2135 -9.3015 -7.9679 -11.829 13.505 3.2263 -0.11176 -0.19931 -0.065377 -0 0 -0 16.588 -3.7492 -83.432 -6.3883 -1.1915 -17.122 6.1557 -7.6581 -23.536 -5.2529 -2.6983 -54.459 -0.016127 0.70904 1.2898 -0 0 -0 
-0.96444 0.94533 -0.87602 -0 0 -0 15.655 -3.4315 -82.63 -4.8051 -8.0968 8.7185 -4.8051 -8.0968 8.7185 -4.1158 -6.7541 7.3614 -0 0 -0 28.857 -9.2136 23.214 -9.6145 4.4979 22.993 -33.725 28.901 -170.63 -0 0 -0 18.093 28.331 -33.137 -3.0805 -5.301 -27.226 -2.8996 68.541 0.50961 2.2558 3.6711 19.571 2.2558 3.6711 19.571 15.655 -3.4315 -82.63 1.9174 -16.683 -2.2222 -7.6686 -9.9685 -10.431 -10.351 13.67 2.5857 0.12342 -0.13448 -0.052211 -0 0 -0 15.655 -3.4315 -82.63 -6.3607 -0.30634 -15.594 3.7804 -6.6708 -27.515 -3.7587 -1.3827 -57.861 0.28316 0.11416 1.6265 -0 0 -0 
-0.95405 0.94725 -0.87367 -0 0 -0 14.726 -4.1753 -81.213 -5.7913 -8.2674 8.7556 -5.7913 -8.2674 8.7556 -4.9453 -6.8874 7.4029 -0 0 -0 34.481 -23.406 30.559 -11.745 4.8586 21.441 -8.0085 44.738 -162.4 -0 0 -0 18.269 28.579 -36.039 -2.1507 -3.6246 -27.58 0.90182 67.695 -8.2949 3.5083 4.1031 18.882 3.5083 4.1031 18.882 14.726 -4.1753 -81.213 -0.30798 -15.784 -3.951 -8.1193 -8.6504 -10.667 -8.6085 13.737 2.5306 -0.16245 -1.4851 -0.091123 -0 0 -0 14.726 -4.1753 -81.213 -7.0562 -0.33131 -15.339 1.2586 -5.1986 -31.621 -1.4164 -0.66641 -57.897 -1.7614 -1.232 -3.7557 -0 0 -0 
-0.93445 0.94866 -0.8811 -0 0 -0 12.977 -3.7735 -79.211 -6.4609 -7.6639 7.6439 -6.4609 -7.6639 7.6439 -5.4915 -6.3816 6.4733 -0 0 -0 41.494 -36.134 34.687 -11.619 2.1483 19.622 28.272 64.515 -165.6 -0 0 -0 18.119 28.43 -35.669 -0.29218 -2.4984 -31.232 9.5334 64.499 -22.018 4.5424 3.514 19.036 4.5424 3.514 19.036 12.977 -3.7735 -79.211 -0.44087 -14.124 -5.2628 -9.4263 -6.4461 -9.3674 -7.4812 13.666 0.46174 1.0664 -3.6142 -0.061149 -0 0 -0 12.977 -3.7735 -79.211 -5.6619 -2.5883 -17.61 -2.1115 -0.7504 -32.913 3.3402 0.38379 -52.563 -1.3753 -2.7769 -7.6875 -0 0 -0 
-0.90889 0.94854 -0.89833 -0 0 -0 11.754 -2.2509 -76.527 -6.8311 -7.2179 5.8539 -6.8311 -7.2179 5.8539 -5.7831 -6.0175 4.9715 -0 0 -0 49.442 -44.083 33.733 -15.075 -12.625 21.543 135.16 62.901 120.24 -0 0 -0 18.864 29.162 -34.901 1.1532 -3.4918 -39.504 10.658 51.739 -26.347 5.146 2.6201 19.301 5.146 2.6201 19.301 11.754 -2.2509 -76.527 0.39213 -16.242 -6.3649 -10.853 0.93085 -7.9762 -9.0722 12.775 -1.0726 3.026 -2.6097 -0.30604 -0 0 -0 11.754 -2.2509 -76.527 -2.0934 -6.8605 -17.633 -6.2413 4.8132 -39.512 7.697 1.6469 -44.65 1.6301 -3.3241 4.0146 -0 0 -0 
-0.88348 0.94572 -0.92236 -0 0 -0 9.0931 -0.25068 -73.221 -5.1553 -5.0317 3.631 -5.1553 -5.0317 3.631 -4.3501 -4.2052 3.0794 -0 0 -0 51.886 -47.955 33.454 -25.281 -40.313 15.244 -175.32 11.083 108.53 -0 0 -0 14.798 27.42 -33.143 2.3076 -7.7888 -53.522 -3.9222 36.818 -9.0109 2.9695 1.351 15.439 2.9695 1.351 15.439 9.0931 -0.25068 -73.221 2.0252 -19.211 -6.517 -14.04 14.229 -8.6811 -10.876 9.5142 1.4266 0.77539 -4.5452 -2.9326 -0 0 -0 9.0931 -0.25068 -73.221 4.1988 -9.5749 -15.748 -10.27 10.057 -47.04 12.138 2.1351 -34.65 0.6776 -7.3832 4.4035 -0 0 -0 
